<?xml version="1.0" encoding="UTF-8" standalone="no"?>
<svg width="274px" height="244px" viewBox="0 0 274 244" version="1.1" xmlns="http://www.w3.org/2000/svg" xmlns:xlink="http://www.w3.org/1999/xlink">
    <!-- Generator: Sketch 47 (45396) - http://www.bohemiancoding.com/sketch -->
    <title>Group</title>
    <desc>Created with Sketch.</desc>
    <defs>
        <text id="text-1" font-family="AvenirNext-Regular, Avenir Next" font-size="45" font-weight="normal" line-spacing="54" letter-spacing="35">
            <tspan x="130.2825" y="122.35994">KN</tspan>
            <tspan x="257.0125" y="104.479919" font-size="60"> </tspan>
            <tspan x="312.9225" y="122.35994">N</tspan>
            <tspan x="382.3025" y="122.35994" letter-spacing="5">R</tspan>
        </text>
        <filter x="-0.3%" y="-1.8%" width="100.7%" height="103.6%" filterUnits="objectBoundingBox" id="filter-2">
            <feGaussianBlur stdDeviation="1.5" in="SourceAlpha" result="shadowBlurInner1"></feGaussianBlur>
            <feOffset dx="0" dy="1" in="shadowBlurInner1" result="shadowOffsetInner1"></feOffset>
            <feComposite in="shadowOffsetInner1" in2="SourceAlpha" operator="arithmetic" k2="-1" k3="1" result="shadowInnerInner1"></feComposite>
            <feColorMatrix values="0 0 0 0 0   0 0 0 0 0   0 0 0 0 0  0 0 0 0.5 0" type="matrix" in="shadowInnerInner1"></feColorMatrix>
        </filter>
        <filter x="-0.3%" y="-1.8%" width="100.7%" height="103.6%" filterUnits="objectBoundingBox" id="filter-3">
            <feGaussianBlur stdDeviation="1.5" in="SourceAlpha" result="shadowBlurInner1"></feGaussianBlur>
            <feOffset dx="0" dy="1" in="shadowBlurInner1" result="shadowOffsetInner1"></feOffset>
            <feComposite in="shadowOffsetInner1" in2="SourceAlpha" operator="arithmetic" k2="-1" k3="1" result="shadowInnerInner1"></feComposite>
            <feColorMatrix values="0 0 0 0 0   0 0 0 0 0   0 0 0 0 0  0 0 0 0.5 0" type="matrix" in="shadowInnerInner1"></feColorMatrix>
        </filter>
        <path d="M287.111524,200.173086 C318.223698,200.173086 343.445098,175.078832 343.445098,144.123502 C343.445098,113.168172 318.223698,88.0739183 287.111524,88.0739183 C263.672922,88.0739183 243.577618,102.316114 235.090746,122.577037 C232.312226,129.210268 230.777949,136.488614 230.777949,144.123502 C230.777949,175.078832 255.999349,200.173086 287.111524,200.173086 Z" id="path-4"></path>
        <filter x="-6.2%" y="-4.5%" width="112.4%" height="112.5%" filterUnits="objectBoundingBox" id="filter-5">
            <feOffset dx="0" dy="2" in="SourceAlpha" result="shadowOffsetOuter1"></feOffset>
            <feGaussianBlur stdDeviation="2" in="shadowOffsetOuter1" result="shadowBlurOuter1"></feGaussianBlur>
            <feColorMatrix values="0 0 0 0 0   0 0 0 0 0   0 0 0 0 0  0 0 0 0.5 0" type="matrix" in="shadowBlurOuter1"></feColorMatrix>
        </filter>
        <path d="M250.991761,187.137358 L250.991761,197.535458 L244.032908,197.535458 L244.032908,180.242624 C235.762368,170.487712 230.777949,157.884759 230.777949,144.123502 C230.777949,136.488614 232.312226,129.210268 235.090746,122.577037 C237.32028,117.254415 240.350949,112.347166 244.032908,108.004381 L244.032908,34.5410707 C244.032908,14.2313391 261.662003,0.153002484 279.52306,0.153002484 L279.52306,7.0767746 C265.14143,7.0767746 250.991761,18.3856024 250.991761,34.5410707 L250.991761,73.8307299 L332.178383,73.8307299 L316.875701,96.5271839 C332.82902,106.424121 343.445098,124.040303 343.445098,144.123502 C343.445098,151.581273 341.981181,158.698852 339.32366,165.207288 C340.703124,169.332941 341.456854,173.671338 341.456854,178.148897 C341.456854,209.075079 316.404982,235.846998 272.796168,235.846998 L272.796168,228.923225 C311.765747,228.923225 334.498001,205.3824 334.498001,178.148897 C334.498001,177.001037 334.434774,175.861332 334.31126,174.731859 C324.256206,190.050072 306.872033,200.173086 287.111524,200.173086 C273.366141,200.173086 260.770567,195.274991 250.991761,187.137358 Z M250.991761,101.109646 C260.770567,92.9720132 273.366141,88.0739183 287.111524,88.0739183 C295.587261,88.0739183 303.625813,89.9362995 310.836348,93.2722027 L319.188524,80.754502 L250.991761,80.754502 L250.991761,101.109646 Z M250.991761,187.137358 L250.991761,101.109646 C248.476298,103.20294 246.147223,105.510595 244.032908,108.004381 L244.032908,180.242624 C246.147223,182.736409 248.476298,185.044065 250.991761,187.137358 Z M310.836348,93.2722027 L282.538563,135.683094 C308.094347,135.683094 331.976207,153.378887 334.31126,174.731859 C336.273425,171.742631 337.956493,168.555568 339.32366,165.207288 C333.166163,146.791651 314.541226,132.61483 294.832537,129.220907 L316.875701,96.5271839 C314.938157,95.3251926 312.921887,94.2370625 310.836348,93.2722027 Z" id="path-6"></path>
        <filter x="-6.2%" y="-2.1%" width="112.4%" height="105.9%" filterUnits="objectBoundingBox" id="filter-7">
            <feOffset dx="0" dy="2" in="SourceAlpha" result="shadowOffsetOuter1"></feOffset>
            <feGaussianBlur stdDeviation="2" in="shadowOffsetOuter1" result="shadowBlurOuter1"></feGaussianBlur>
            <feColorMatrix values="0 0 0 0 0   0 0 0 0 0   0 0 0 0 0  0 0 0 0.5 0" type="matrix" in="shadowBlurOuter1"></feColorMatrix>
        </filter>
    </defs>
    <g id="Page-1" stroke="none" stroke-width="1" fill="none" fill-rule="evenodd">
        <g id="Group" transform="translate(-152.000000, 2.000000)">
            <g id="KN-NR" fill="#545454">
                <use fill-rule="evenodd" style="mix-blend-mode: difference;" xlink:href="#text-1"></use>
                <use fill-opacity="1" filter="url(#filter-2)" xlink:href="#text-1"></use>
                <use fill-opacity="1" filter="url(#filter-3)" xlink:href="#text-1"></use>
            </g>
            <g id="Path">
                <use fill="black" fill-opacity="1" filter="url(#filter-5)" xlink:href="#path-4"></use>
                <use fill="#545454" fill-rule="evenodd" xlink:href="#path-4"></use>
            </g>
            <g id="Combined-Shape">
                <use fill="black" fill-opacity="1" filter="url(#filter-7)" xlink:href="#path-6"></use>
                <use fill="#FFFFFF" fill-rule="evenodd" xlink:href="#path-6"></use>
            </g>
        </g>
    </g>
</svg>