<?xml version="1.0" encoding="UTF-8" standalone="no"?>
<svg width="274px" height="116px" viewBox="0 0 274 116" version="1.1" xmlns="http://www.w3.org/2000/svg" xmlns:xlink="http://www.w3.org/1999/xlink">
    <!-- Generator: Sketch 47 (45396) - http://www.bohemiancoding.com/sketch -->
    <title>Group</title>
    <desc>Created with Sketch.</desc>
    <defs></defs>
    <g id="Page-1" stroke="none" stroke-width="1" fill="none" fill-rule="evenodd">
        <g id="Desktop-HD" transform="translate(-51.000000, -14.000000)" fill="#545454">
            <g id="Group" transform="translate(47.000000, 14.000000)">
                <text id="KN-NR" font-family="AvenirNext-Regular, Avenir Next" font-size="45" font-weight="normal" line-spacing="54" letter-spacing="35">
                    <tspan x="0" y="104.88002">KN</tspan>
                    <tspan x="126.73" y="87" font-size="60"> </tspan>
                    <tspan x="182.64" y="104.88002">N</tspan>
                    <tspan x="252.02" y="104.88002" letter-spacing="5">R</tspan>
                </text>
                <path d="M117.490721,88.6335524 C113.440783,83.8325402 111,77.6298259 111,70.8570363 C111,67.0994222 111.751308,63.5172857 113.111901,60.2526507 C114.203665,57.6330503 115.68773,55.2178809 117.490721,53.0805202 L117.490721,16.9245547 C117.490721,6.92884454 126.12338,0 134.869626,0 L134.869626,3.40762846 C127.827194,3.40762846 120.898349,8.97342162 120.898349,16.9245547 L120.898349,36.261494 L160.654015,36.261494 L153.16056,47.431862 C160.97262,52.3027741 166.171127,60.972817 166.171127,70.8570363 C166.171127,74.5274796 165.454273,78.0304926 164.152932,81.2337078 C164.828431,83.264204 165.197519,85.3994047 165.197519,87.6030961 C165.197519,102.823837 152.930057,116 131.575585,116 L131.575585,112.592372 C150.658305,112.592372 161.789891,101.006435 161.789891,87.6030961 C161.789891,87.0381614 161.75893,86.4772401 161.698447,85.9213548 C156.774663,93.4604214 148.261939,98.4426 138.585564,98.4426 C131.854691,98.4426 125.686859,96.0319361 120.898349,92.0268896 L120.898349,97.1444558 L117.490721,97.1444558 L117.490721,88.6335524 Z M150.203194,45.8298788 L154.293108,39.6691224 L120.898349,39.6691224 L120.898349,49.6871829 C125.686859,45.6821364 131.854691,43.2714725 138.585564,43.2714725 C142.735984,43.2714725 146.672322,44.1880687 150.203194,45.8298788 Z M117.490721,88.6335524 C118.526064,89.8609029 119.666571,90.9966468 120.898349,92.0268896 L120.898349,49.6871829 C119.666571,50.7174258 118.526064,51.8531696 117.490721,53.0805202 L117.490721,88.6335524 Z M153.16056,47.431862 C152.211778,46.8402857 151.224446,46.3047477 150.203194,45.8298788 L136.346265,66.7029749 C148.860485,66.7029749 160.555012,75.4121999 161.698447,85.9213548 C162.659285,84.4501657 163.483454,82.8816092 164.152932,81.2337078 C161.137713,72.1702021 152.017408,65.192887 142.366409,63.5225217 L153.16056,47.431862 Z" id="Combined-Shape"></path>
            </g>
        </g>
    </g>
</svg>